<svg xmlns="http://www.w3.org/2000/svg" viewBox="0 0 800 750">
  <g fill="#E0E0E0" stroke="#333" stroke-width="1">

    <path id="AC" d="M75 395 L110 360 L140 380 L150 420 L120 440 Z"/>
    <path id="AM" d="M110 310 L200 270 L260 300 L240 350 L180 360 L130 340 Z"/>
    <path id="RR" d="M210 190 L260 150 L300 200 L260 240 Z"/>
    <path id="PA" d="M260 250 L330 260 L360 280 L330 330 L240 300 Z"/>
    <path id="AP" d="M350 200 L380 210 L360 250 Z"/>
    <path id="RO" d="M150 430 L200 420 L220 460 L170 470 Z"/>
    <path id="MT" d="M230 380 L300 360 L340 400 L300 450 L240 430 Z"/>
    <path id="MS" d="M240 460 L290 460 L310 510 L260 520 Z"/>
    <path id="TO" d="M330 330 L380 320 L400 360 L350 390 Z"/>
    <path id="GO" d="M350 420 L400 390 L430 430 L380 470 Z"/>
    <path id="DF" d="M395 420 L405 420 L405 430 L395 430 Z"/>
    <path id="MA" d="M380 260 L460 240 L480 290 L430 310 Z"/>
    <path id="PI" d="M430 310 L480 290 L510 340 L470 360 Z"/>
    <path id="CE" d="M510 310 L550 300 L580 340 L540 360 Z"/>
    <path id="RN" d="M575 300 L600 300 L605 320 L585 330 Z"/>
    <path id="PB" d="M565 320 L595 320 L600 340 L570 345 Z"/>
    <path id="PE" d="M560 340 L600 340 L610 360 L570 365 Z"/>
    <path id="AL" d="M560 370 L590 370 L595 385 L565 385 Z"/>
    <path id="SE" d="M590 385 L610 390 L605 405 L585 400 Z"/>
    <path id="BA" d="M480 380 L540 360 L570 400 L520 430 Z"/>
    <path id="MG" d="M430 450 L480 420 L520 430 L500 480 L460 490 Z"/>
    <path id="ES" d="M520 430 L540 440 L545 460 L515 465 Z"/>
    <path id="RJ" d="M490 500 L530 490 L535 510 L495 515 Z"/>
    <path id="SP" d="M430 500 L480 490 L500 530 L440 540 Z"/>
    <path id="PR" d="M380 530 L430 520 L440 560 L390 570 Z"/>
    <path id="SC" d="M380 570 L430 560 L440 600 L390 610 Z"/>
    <path id="RS" d="M350 610 L420 600 L430 650 L360 650 Z"/>

  </g>
</svg>
